<svg width="160" height="66" viewBox="0 0 160 66" fill="none" xmlns="http://www.w3.org/2000/svg">
<rect x="1.29102" y="0.5" width="158" height="65" rx="32.5" stroke="#E0E0E0"/>
<path d="M83.501 33.79H85.918C85.8535 34.6455 85.6162 35.4043 85.2061 36.0664C84.7959 36.7227 84.2246 37.2383 83.4922 37.6133C82.7598 37.9883 81.8721 38.1758 80.8291 38.1758C80.0264 38.1758 79.3027 38.0352 78.6582 37.7539C78.0195 37.4668 77.4717 37.0596 77.0146 36.5322C76.5635 35.999 76.2178 35.3604 75.9775 34.6162C75.7373 33.8662 75.6172 33.0254 75.6172 32.0938V31.1182C75.6172 30.1865 75.7402 29.3457 75.9863 28.5957C76.2324 27.8457 76.584 27.207 77.041 26.6797C77.5039 26.1465 78.0576 25.7363 78.7021 25.4492C79.3525 25.1621 80.0791 25.0186 80.8818 25.0186C81.9248 25.0186 82.8066 25.2119 83.5273 25.5986C84.248 25.9795 84.8076 26.5039 85.2061 27.1719C85.6045 27.8398 85.8447 28.6074 85.9268 29.4746H83.5098C83.4629 28.9355 83.3457 28.4785 83.1582 28.1035C82.9766 27.7285 82.7012 27.4443 82.332 27.251C81.9688 27.0518 81.4854 26.9521 80.8818 26.9521C80.4131 26.9521 80 27.04 79.6426 27.2158C79.291 27.3916 78.998 27.6553 78.7637 28.0068C78.5293 28.3525 78.3535 28.7861 78.2363 29.3076C78.1191 29.8232 78.0605 30.4209 78.0605 31.1006V32.0938C78.0605 32.7441 78.1133 33.3271 78.2188 33.8428C78.3242 34.3584 78.4883 34.7949 78.7109 35.1523C78.9336 35.5098 79.2207 35.7822 79.5723 35.9697C79.9238 36.1572 80.3428 36.251 80.8291 36.251C81.4209 36.251 81.9014 36.1572 82.2705 35.9697C82.6455 35.7822 82.9297 35.5068 83.123 35.1436C83.3223 34.7803 83.4482 34.3291 83.501 33.79ZM92.8525 35.9785V31.5928C92.8525 31.2705 92.7969 30.9922 92.6855 30.7578C92.5742 30.5234 92.4043 30.3418 92.1758 30.2129C91.9473 30.084 91.6572 30.0195 91.3057 30.0195C90.9951 30.0195 90.7227 30.0723 90.4883 30.1777C90.2598 30.2832 90.084 30.4326 89.9609 30.626C89.8379 30.8135 89.7764 31.0303 89.7764 31.2764H87.4473C87.4473 30.8838 87.541 30.5117 87.7285 30.1602C87.916 29.8027 88.1826 29.4863 88.5283 29.2109C88.8799 28.9297 89.2988 28.71 89.7852 28.5518C90.2773 28.3936 90.8281 28.3145 91.4375 28.3145C92.1582 28.3145 92.7998 28.4375 93.3623 28.6836C93.9307 28.9238 94.376 29.2871 94.6982 29.7734C95.0264 30.2598 95.1904 30.8721 95.1904 31.6104V35.7588C95.1904 36.2334 95.2197 36.6406 95.2783 36.9805C95.3428 37.3145 95.4365 37.6045 95.5596 37.8506V38H93.1953C93.084 37.7598 92.999 37.4551 92.9404 37.0859C92.8818 36.7109 92.8525 36.3418 92.8525 35.9785ZM93.1777 32.208L93.1953 33.5879H91.7275C91.3643 33.5879 91.0449 33.626 90.7695 33.7021C90.4941 33.7725 90.2686 33.8779 90.0928 34.0186C89.917 34.1533 89.7852 34.3174 89.6973 34.5107C89.6094 34.6982 89.5654 34.9121 89.5654 35.1523C89.5654 35.3867 89.6182 35.5977 89.7236 35.7852C89.835 35.9727 89.9932 36.1221 90.1982 36.2334C90.4092 36.3389 90.6553 36.3916 90.9365 36.3916C91.3467 36.3916 91.7041 36.3096 92.0088 36.1455C92.3135 35.9756 92.5508 35.7705 92.7207 35.5303C92.8906 35.29 92.9814 35.0615 92.9932 34.8447L93.6611 35.8467C93.5791 36.0869 93.4561 36.3418 93.292 36.6113C93.1279 36.8809 92.917 37.1328 92.6592 37.3672C92.4014 37.6016 92.0908 37.7949 91.7275 37.9473C91.3643 38.0996 90.9424 38.1758 90.4619 38.1758C89.8467 38.1758 89.2959 38.0527 88.8096 37.8066C88.3232 37.5605 87.9395 37.2236 87.6582 36.7959C87.377 36.3682 87.2363 35.8818 87.2363 35.3369C87.2363 34.833 87.3301 34.3877 87.5176 34.001C87.7051 33.6143 87.9834 33.2891 88.3525 33.0254C88.7217 32.7559 89.1787 32.5537 89.7236 32.4189C90.2744 32.2783 90.9043 32.208 91.6133 32.208H93.1777ZM99.6025 30.4326V38H97.2822V28.4902H99.4795L99.6025 30.4326ZM102.494 28.4287L102.459 30.5908C102.33 30.5674 102.184 30.5498 102.02 30.5381C101.861 30.5264 101.712 30.5205 101.571 30.5205C101.214 30.5205 100.9 30.5703 100.631 30.6699C100.361 30.7637 100.136 30.9014 99.9541 31.083C99.7783 31.2646 99.6436 31.4873 99.5498 31.751C99.4561 32.0088 99.4033 32.3018 99.3916 32.6299L98.8906 32.5684C98.8906 31.9648 98.9521 31.4053 99.0752 30.8896C99.1982 30.374 99.377 29.9229 99.6113 29.5361C99.8457 29.1494 100.139 28.8506 100.49 28.6396C100.848 28.4229 101.258 28.3145 101.721 28.3145C101.85 28.3145 101.987 28.3262 102.134 28.3496C102.286 28.3672 102.406 28.3936 102.494 28.4287ZM108.708 28.4902V30.1602H103.259V28.4902H108.708ZM104.718 26.1523H107.047V35.2578C107.047 35.5391 107.085 35.7559 107.161 35.9082C107.237 36.0605 107.352 36.1631 107.504 36.2158C107.656 36.2686 107.838 36.2949 108.049 36.2949C108.201 36.2949 108.342 36.2861 108.471 36.2686C108.6 36.251 108.708 36.2334 108.796 36.2158L108.805 37.9561C108.611 38.0205 108.392 38.0732 108.146 38.1143C107.905 38.1553 107.633 38.1758 107.328 38.1758C106.807 38.1758 106.35 38.0879 105.957 37.9121C105.564 37.7305 105.26 37.4404 105.043 37.042C104.826 36.6377 104.718 36.1045 104.718 35.4424V26.1523ZM114.808 32.9639V32.7969C114.808 31.5547 114.939 30.4268 115.203 29.4131C115.473 28.3936 115.824 27.5 116.258 26.7324C116.691 25.9648 117.16 25.3291 117.664 24.8252C118.174 24.3154 118.669 23.9492 119.149 23.7266L119.606 25.001C119.272 25.2529 118.938 25.5986 118.604 26.0381C118.276 26.4717 117.978 27.0078 117.708 27.6465C117.438 28.2852 117.222 29.0293 117.058 29.8789C116.899 30.7285 116.82 31.6953 116.82 32.7793V32.9814C116.82 34.0654 116.899 35.0352 117.058 35.8906C117.222 36.7402 117.438 37.4844 117.708 38.123C117.978 38.7617 118.276 39.3037 118.604 39.749C118.938 40.1943 119.272 40.5459 119.606 40.8037L119.149 42.043C118.669 41.8145 118.174 41.4482 117.664 40.9443C117.16 40.4404 116.691 39.8047 116.258 39.0371C115.824 38.2695 115.473 37.3789 115.203 36.3652C114.939 35.3457 114.808 34.2119 114.808 32.9639ZM129.345 30.5029V32.6562C129.345 33.6406 129.245 34.4814 129.046 35.1787C128.847 35.876 128.56 36.4473 128.185 36.8926C127.81 37.332 127.361 37.6572 126.84 37.8682C126.318 38.0732 125.738 38.1758 125.1 38.1758C124.59 38.1758 124.115 38.1113 123.676 37.9824C123.236 37.8477 122.841 37.6426 122.489 37.3672C122.144 37.0859 121.845 36.7285 121.593 36.2949C121.347 35.8613 121.156 35.3428 121.021 34.7393C120.893 34.1357 120.828 33.4414 120.828 32.6562V30.5029C120.828 29.5186 120.928 28.6807 121.127 27.9893C121.332 27.2979 121.622 26.7324 121.997 26.293C122.372 25.8535 122.82 25.5342 123.342 25.335C123.863 25.1299 124.443 25.0273 125.082 25.0273C125.598 25.0273 126.072 25.0918 126.506 25.2207C126.945 25.3496 127.338 25.5518 127.684 25.8271C128.035 26.0967 128.334 26.4482 128.58 26.8818C128.826 27.3096 129.014 27.8252 129.143 28.4287C129.277 29.0264 129.345 29.7178 129.345 30.5029ZM127.024 32.9727V30.1777C127.024 29.6855 126.995 29.2578 126.937 28.8945C126.884 28.5254 126.805 28.2119 126.699 27.9541C126.594 27.6963 126.462 27.4883 126.304 27.3301C126.146 27.166 125.964 27.0459 125.759 26.9697C125.554 26.8936 125.328 26.8555 125.082 26.8555C124.777 26.8555 124.505 26.917 124.265 27.04C124.024 27.1572 123.822 27.3447 123.658 27.6025C123.494 27.8604 123.368 28.2031 123.28 28.6309C123.198 29.0527 123.157 29.5684 123.157 30.1777V32.9727C123.157 33.4648 123.184 33.8955 123.236 34.2646C123.295 34.6338 123.377 34.9502 123.482 35.2139C123.594 35.4775 123.726 35.6943 123.878 35.8643C124.036 36.0283 124.218 36.1514 124.423 36.2334C124.628 36.3096 124.854 36.3477 125.1 36.3477C125.41 36.3477 125.683 36.2861 125.917 36.1631C126.157 36.04 126.359 35.8467 126.523 35.583C126.688 35.3135 126.811 34.9648 126.893 34.5371C126.98 34.1035 127.024 33.582 127.024 32.9727ZM135.488 32.7969V32.9639C135.488 34.1826 135.351 35.2988 135.075 36.3125C134.806 37.3262 134.448 38.2197 134.003 38.9932C133.563 39.7666 133.083 40.4111 132.562 40.9268C132.046 41.4424 131.539 41.8145 131.041 42.043L130.584 40.8037C130.918 40.5518 131.249 40.2061 131.577 39.7666C131.905 39.3271 132.204 38.7852 132.474 38.1406C132.749 37.4961 132.966 36.7461 133.124 35.8906C133.288 35.0352 133.37 34.0654 133.37 32.9814V32.7793C133.37 31.6953 133.285 30.7256 133.115 29.8701C132.951 29.0146 132.731 28.2676 132.456 27.6289C132.181 26.9844 131.879 26.4424 131.551 26.0029C131.223 25.5576 130.9 25.2119 130.584 24.9658L131.041 23.7266C131.539 23.9492 132.046 24.3213 132.562 24.8428C133.083 25.3584 133.563 26.0059 134.003 26.7852C134.448 27.5586 134.806 28.4521 135.075 29.4658C135.351 30.4736 135.488 31.584 135.488 32.7969Z" fill="#274C5B"/>
<circle cx="34.791" cy="33" r="28" fill="#274C5B"/>
<path d="M31.5688 44.0001C32.2438 44.0001 32.791 43.4529 32.791 42.7779C32.791 42.1029 32.2438 41.5557 31.5688 41.5557C30.8938 41.5557 30.3466 42.1029 30.3466 42.7779C30.3466 43.4529 30.8938 44.0001 31.5688 44.0001Z" fill="white" stroke="white" stroke-width="1.5" stroke-linecap="round" stroke-linejoin="round"/>
<path d="M40.1243 44.0001C40.7993 44.0001 41.3465 43.4529 41.3465 42.7779C41.3465 42.1029 40.7993 41.5557 40.1243 41.5557C39.4493 41.5557 38.9021 42.1029 38.9021 42.7779C38.9021 43.4529 39.4493 44.0001 40.1243 44.0001Z" fill="white" stroke="white" stroke-width="1.5" stroke-linecap="round" stroke-linejoin="round"/>
<path d="M21.791 22H25.5729L28.4093 38.0731H43.5369" stroke="white" stroke-width="2" stroke-linecap="round" stroke-linejoin="round"/>
<path d="M27.9021 34.1837L43.1493 34.2907C43.2586 34.2908 43.3646 34.2529 43.4492 34.1837C43.5337 34.1144 43.5917 34.0179 43.6132 33.9107L45.315 25.4014C45.3287 25.3328 45.3271 25.262 45.3101 25.1941C45.2932 25.1262 45.2613 25.063 45.217 25.0089C45.1726 24.9548 45.1168 24.9112 45.0535 24.8813C44.9902 24.8514 44.9211 24.8359 44.8511 24.8359L26.3583 24.8359" stroke="white" stroke-width="2" stroke-linecap="round" stroke-linejoin="round"/>
</svg>
