<svg width="70" height="70" viewBox="0 0 70 70" fill="none" xmlns="http://www.w3.org/2000/svg">
<path fill-rule="evenodd" clip-rule="evenodd" d="M35 5.83331C46.2758 5.83331 55.4167 14.9742 55.4167 26.25C55.4167 29.6593 54.5834 32.8717 53.104 35.6983L35 67.0833L17.3154 36.4595C15.575 33.4541 14.5833 29.9692 14.5833 26.25C14.5833 14.9742 23.7242 5.83331 35 5.83331ZM35 11.6666C26.9458 11.6666 20.4167 18.1958 20.4167 26.25C20.4167 28.566 20.9509 30.7882 21.962 32.7943L22.452 33.6892L35 55.4166L47.6366 33.5362C48.9071 31.3423 49.5833 28.8555 49.5833 26.25C49.5833 18.1958 43.0541 11.6666 35 11.6666ZM35 17.5C39.8325 17.5 43.75 21.4175 43.75 26.25C43.75 31.0825 39.8325 35 35 35C30.1675 35 26.25 31.0825 26.25 26.25C26.25 21.4175 30.1675 17.5 35 17.5ZM35 23.3333C33.3892 23.3333 32.0833 24.6391 32.0833 26.25C32.0833 27.8608 33.3892 29.1666 35 29.1666C36.6108 29.1666 37.9167 27.8608 37.9167 26.25C37.9167 24.6391 36.6108 23.3333 35 23.3333Z" fill="#C0B7E8"/>
</svg>
