<svg width="48" height="49" viewBox="0 0 48 49" fill="none" xmlns="http://www.w3.org/2000/svg">
<path fill-rule="evenodd" clip-rule="evenodd" d="M23.5617 4.5006C28.7894 4.5006 33.108 8.48392 33.6405 13.5784L33.7891 13.5802C36.6891 13.5802 40.2151 15.5062 41.4051 20.9082L42.9831 33.1222C43.5491 37.0642 42.8411 40.2262 40.8751 42.4942C38.9191 44.7502 35.8231 45.9442 31.9211 45.9442H15.2251C10.9391 45.9442 7.95306 44.8942 6.09506 42.7362C4.22906 40.5722 3.60506 37.3262 4.24106 33.0902L5.79306 21.0382C6.81306 15.5122 10.5431 13.5802 13.4311 13.5802C13.6804 11.2812 14.7171 9.09401 16.3617 7.4546C18.2517 5.5766 20.8577 4.5006 23.5197 4.5006H23.5617ZM33.7891 16.5802H13.4311C12.5491 16.5802 9.60106 16.9362 8.75506 21.5042L7.21106 33.5042C6.70906 36.8702 7.09706 39.3062 8.36706 40.7802C9.62106 42.2362 11.8651 42.9442 15.2251 42.9442H31.9211C34.0171 42.9442 36.8791 42.5262 38.6071 40.5302C39.9791 38.9482 40.4511 36.5922 40.0111 33.5262L38.4531 21.4222C37.7891 18.4402 36.0371 16.5802 33.7891 16.5802ZM29.3947 22.1484C30.2227 22.1484 30.9407 22.8204 30.9407 23.6484C30.9407 24.4764 30.3147 25.1484 29.4867 25.1484H29.3947C28.5667 25.1484 27.8947 24.4764 27.8947 23.6484C27.8947 22.8204 28.5667 22.1484 29.3947 22.1484ZM17.7345 22.1484C18.5625 22.1484 19.2805 22.8204 19.2805 23.6484C19.2805 24.4764 18.6525 25.1484 17.8245 25.1484H17.7345C16.9065 25.1484 16.2345 24.4764 16.2345 23.6484C16.2345 22.8204 16.9065 22.1484 17.7345 22.1484ZM23.5557 7.5006H23.5257C21.6437 7.5006 19.8097 8.2586 18.4797 9.5806C17.3963 10.6591 16.6877 12.077 16.4585 13.5793L30.6171 13.5798C30.1031 10.1434 27.1315 7.5006 23.5557 7.5006Z" fill="white"/>
</svg>
